<svg xmlns="http://www.w3.org/2000/svg" viewBox="0 0 24 24" width="24" height="24" fill="none" stroke="currentColor" stroke-width="1.8" stroke-linecap="round" stroke-linejoin="miter"><ellipse cx="12" cy="18.55" rx="5.5" ry="0.7" fill="currentColor" stroke="none" fill-opacity="0.14"/><g fill="currentColor" stroke="none" fill-opacity="0.18"><path d="M10.02,7.22 L7.38,9.69 L6.06,13.32 L5.93,17.61 L8.72,17.61 L10.77,11.94 Z"/></g><g fill="currentColor" stroke="none" fill-opacity="0.36"><path d="M10.68,7.22 L13.05,7.93 L11.21,11.67 Z"/></g><g fill="currentColor" stroke="none" fill-opacity="0.58"><path d="M11.24,12.47 L13.62,17.61 L9.42,17.61 Z"/></g><g fill="currentColor" stroke="none" fill-opacity="1"><path d="M13.62,8.29 L16.29,9.69 L18.07,13.32 L18.03,14.25 L15.7,17.61 L14.31,17.61 L11.51,12.2 Z"/></g><g fill="currentColor" stroke="none" fill-opacity="0.72"><path d="M18.05,14.95 L17.94,17.61 L16.32,17.61 Z"/></g><path d="M3.2,7.2 L3.2,3.2 L7.2,3.2"/><path d="M16.8,3.2 L20.8,3.2 L20.8,7.2"/><path d="M20.8,16.8 L20.8,20.8 L16.8,20.8"/><path d="M7.2,20.8 L3.2,20.8 L3.2,16.8"/></svg>
